<?xml version="1.0" ?><svg viewBox="0 0 64 64" xmlns="http://www.w3.org/2000/svg"><g data-name="17-Magic Ball" id="_17-Magic_Ball"><polygon points="61 59 63 59 63 63 1 63 1 59 3 59 61 59" style="fill:#00c8c8"/><path d="M57,51a4,4,0,0,1,4,4v4H3V55a4,4,0,0,1,4-4H57Z" style="fill:#b4f5f0"/><path d="M57,51H7a4,4,0,0,0-4,4v4a4,4,0,0,1,4-4H57a4,4,0,0,1,4,4V55A4,4,0,0,0,57,51Z" style="fill:#00c8c8"/><polygon points="56 47 56 51 8 51 8 47 8.51 47 55.49 47 56 47" style="fill:#64e1dc"/><path d="M61,30a28.9,28.9,0,0,1-5.51,17H8.51A29,29,0,1,1,61,30Z" style="fill:#e0b8ff"/><path d="M34.5,1.114C33.675,1.044,32.843,1,32,1A29,29,0,0,0,8.51,47h5A28.99,28.99,0,0,1,34.5,1.114Z" style="fill:#d2a0f5"/><path d="M32,1c-.843,0-1.675.044-2.5.114A28.99,28.99,0,0,1,50.49,47h5A29,29,0,0,0,32,1Z" style="fill:#f5e1ff"/><circle cx="32" cy="30" r="17" style="fill:#b674f2"/><path d="M57,30H55A23.026,23.026,0,0,0,32,7V5A25.028,25.028,0,0,1,57,30Z" style="fill:#b674f2"/><rect height="2" style="fill:#b674f2" width="2" x="55" y="32"/><path d="M32,48V46A16.019,16.019,0,0,0,48,30h2A18.021,18.021,0,0,1,32,48Z" style="fill:#dce1eb"/><path d="M16,30H14A18.021,18.021,0,0,1,32,12v2A16.019,16.019,0,0,0,16,30Z" style="fill:#dce1eb"/><rect height="2" style="fill:#dce1eb" width="2" x="14" y="32"/><polygon points="10 26 8 26 8 28 6 28 6 30 8 30 8 32 10 32 10 30 12 30 12 28 10 28 10 26" style="fill:#ffa426"/><polygon points="50 22 48 22 48 24 46 24 46 26 48 26 48 28 50 28 50 26 52 26 52 24 50 24 50 22" style="fill:#ffa426"/><polygon points="7 10 7 8 9 8 9 6 7 6 7 4 5 4 5 6 3 6 3 8 5 8 5 10 7 10" style="fill:#ffa426"/><polygon points="61 6 59 6 59 4 57 4 57 6 55 6 55 8 57 8 57 10 59 10 59 8 61 8 61 6" style="fill:#ffa426"/><circle cx="35" cy="30" r="4" style="fill:#ff7045"/><path d="M27.22,21.22A9.9,9.9,0,0,1,32,20a10,10,0,0,1,9.97,9.22c.02.25.03.52.03.78a10,10,0,1,1-14.78-8.78ZM31,30a4,4,0,1,0,4-4A4,4,0,0,0,31,30Z" style="fill:#e9edf5"/><path d="M35,26a3.977,3.977,0,0,1,1,.141,3.982,3.982,0,0,0,0,7.718A3.994,3.994,0,1,1,35,26Z" style="fill:#f05e3a"/><rect height="2" style="fill:#00a0aa" width="2" x="34" y="29"/><path d="M26.131,28.455a9.911,9.911,0,0,1,2.127-4.782l-1.915-1.916A10.145,10.145,0,0,0,24.86,23a9.939,9.939,0,0,0-2.81,6h3.536Z" style="fill:#cdd2e1"/><path d="M34,20.2a9.943,9.943,0,0,0-5.821.561l1.508,1.509A9.969,9.969,0,0,1,34,20.2Z" style="fill:#cdd2e1"/><path d="M26.216,32H25V31H22.06a9.968,9.968,0,0,0,3.083,6.276l2.6-1.648A9.925,9.925,0,0,1,26.216,32Z" style="fill:#cdd2e1"/><path d="M34.022,39.8a9.727,9.727,0,0,1-4.978-2.622L26.907,38.6a9.98,9.98,0,0,0,7.115,1.2Z" style="fill:#cdd2e1"/><path d="M30,35V33H28v2.465l-.258.163-2.6,1.648A9.255,9.255,0,0,0,26.907,38.6l2.137-1.424L29.3,37H32V35Z" style="fill:#ffa480"/><path d="M27.293,27.293l-1.162,1.162L25.586,29H22.05a9.119,9.119,0,0,0,.01,2H25v1h2V30.414l1.707-1.707Z" style="fill:#ffa480"/><path d="M30.414,23l-.727-.727-1.508-1.509a10,10,0,0,0-1.836.993l1.915,1.916.525.524-.678,1.356,1.79.894L30.618,25H32V23Z" style="fill:#ffa480"/><rect height="4" style="fill:none;stroke:#000;stroke-linejoin:round;stroke-width:2px" width="62" x="1" y="59"/><path d="M7,51H57a4,4,0,0,1,4,4v4a0,0,0,0,1,0,0H3a0,0,0,0,1,0,0V55A4,4,0,0,1,7,51Z" style="fill:none;stroke:#000;stroke-linejoin:round;stroke-width:2px"/><rect height="4" style="fill:none;stroke:#000;stroke-linejoin:round;stroke-width:2px" width="48" x="8" y="47"/><path d="M32,1A28.993,28.993,0,0,0,8.512,47H55.488A28.993,28.993,0,0,0,32,1Z" style="fill:none;stroke:#000;stroke-linejoin:round;stroke-width:2px"/><path d="M56,30A24,24,0,0,0,32,6" style="fill:none;stroke:#000;stroke-linejoin:round;stroke-width:2px"/><line style="fill:none;stroke:#000;stroke-linejoin:round;stroke-width:2px" x1="55" x2="57" y1="33" y2="33"/><circle cx="32" cy="30" r="10" style="fill:none;stroke:#000;stroke-linejoin:round;stroke-width:2px"/><circle cx="35" cy="30" r="4" style="fill:none;stroke:#000;stroke-linejoin:round;stroke-width:2px"/><line style="fill:none;stroke:#000;stroke-linejoin:round;stroke-width:2px" x1="36" x2="34" y1="30" y2="30"/><polyline points="26 38 29 36 29 33" style="fill:none;stroke:#000;stroke-linejoin:round;stroke-width:2px"/><line style="fill:none;stroke:#000;stroke-linejoin:round;stroke-width:2px" x1="29" x2="32" y1="36" y2="36"/><polyline points="22 30 26 30 28 28" style="fill:none;stroke:#000;stroke-linejoin:round;stroke-width:2px"/><line style="fill:none;stroke:#000;stroke-linejoin:round;stroke-width:2px" x1="26" x2="26" y1="30" y2="32"/><polyline points="27 21 30 24 32 24" style="fill:none;stroke:#000;stroke-linejoin:round;stroke-width:2px"/><line style="fill:none;stroke:#000;stroke-linejoin:round;stroke-width:2px" x1="30" x2="29" y1="24" y2="26"/><path d="M32,47A17,17,0,0,0,49,30" style="fill:none;stroke:#000;stroke-linejoin:round;stroke-width:2px"/><path d="M32,13A17,17,0,0,0,15,30" style="fill:none;stroke:#000;stroke-linejoin:round;stroke-width:2px"/><line style="fill:none;stroke:#000;stroke-linejoin:round;stroke-width:2px" x1="14" x2="16" y1="33" y2="33"/><line style="fill:none;stroke:#000;stroke-linejoin:round;stroke-width:2px" x1="9" x2="9" y1="26" y2="32"/><line style="fill:none;stroke:#000;stroke-linejoin:round;stroke-width:2px" x1="12" x2="6" y1="29" y2="29"/><line style="fill:none;stroke:#000;stroke-linejoin:round;stroke-width:2px" x1="49" x2="49" y1="22" y2="28"/><line style="fill:none;stroke:#000;stroke-linejoin:round;stroke-width:2px" x1="52" x2="46" y1="25" y2="25"/><line style="fill:none;stroke:#000;stroke-linejoin:round;stroke-width:2px" x1="6" x2="6" y1="4" y2="10"/><line style="fill:none;stroke:#000;stroke-linejoin:round;stroke-width:2px" x1="9" x2="3" y1="7" y2="7"/><line style="fill:none;stroke:#000;stroke-linejoin:round;stroke-width:2px" x1="58" x2="58" y1="4" y2="10"/><line style="fill:none;stroke:#000;stroke-linejoin:round;stroke-width:2px" x1="61" x2="55" y1="7" y2="7"/></g></svg>